<svg width="106" height="113" viewBox="0 0 106 113" fill="none" xmlns="http://www.w3.org/2000/svg">
<g clip-path="url(#clip0_14_48)">
<path d="M105.312 56.392C105.312 49.8362 96.5754 43.6234 83.1806 39.7707C86.2717 26.9416 84.8979 16.7348 78.8445 13.467C77.4492 12.7005 75.8178 12.3374 74.0361 12.3374V16.8356C75.0235 16.8356 75.8178 17.0172 76.4832 17.3601C79.4026 18.9335 80.6691 24.9244 79.6816 32.6299C79.4455 34.5261 79.0591 36.523 78.5869 38.5604C74.3795 37.5921 69.7858 36.8458 64.956 36.3617C62.0581 32.6299 59.0529 29.2411 56.0262 26.2759C63.0241 20.1639 69.5926 16.8155 74.0576 16.8155V12.3172C68.1544 12.3172 60.4267 16.2708 52.6131 23.1291C44.7995 16.3112 37.0717 12.3979 31.1686 12.3979V16.8961C35.612 16.8961 42.2021 20.2244 49.2 26.2961C46.1947 29.2613 43.1895 32.6299 40.3345 36.3617C35.4832 36.8458 30.8895 37.5921 26.6822 38.5805C26.1885 36.5634 25.8235 34.6067 25.566 32.7308C24.5571 25.0253 25.8021 19.0343 28.7 17.4408C29.344 17.0777 30.1811 16.9163 31.1686 16.9163V12.4181C29.3654 12.4181 27.734 12.7811 26.3173 13.5477C20.2853 16.8155 18.933 27.0021 22.0455 39.7908C8.69371 43.6638 0 49.8564 0 56.392C0 62.9477 8.73664 69.1606 22.1314 73.0133C19.0403 85.8424 20.4141 96.0492 26.4675 99.317C27.8628 100.084 29.4942 100.447 31.2974 100.447C37.2005 100.447 44.9283 96.493 52.7419 89.6347C60.5555 96.4526 68.2832 100.366 74.1864 100.366C75.9895 100.366 77.6209 100.003 79.0377 99.2363C85.0696 95.9685 86.422 85.7819 83.3094 72.9932C96.6183 69.1404 105.312 62.9276 105.312 56.392ZM77.3633 42.9376C76.5691 45.5397 75.5816 48.2225 74.4654 50.9053C73.5853 49.2916 72.6623 47.6779 71.6534 46.0642C70.6659 44.4504 69.6141 42.8771 68.5623 41.344C71.6105 41.7676 74.5513 42.2921 77.3633 42.9376ZM67.5319 64.4203C65.8576 67.1434 64.1403 69.7254 62.3586 72.1258C59.1602 72.388 55.9188 72.5292 52.656 72.5292C49.4146 72.5292 46.1733 72.388 42.9963 72.146C41.2146 69.7455 39.4759 67.1838 37.8016 64.4808C36.1701 61.8383 34.689 59.1555 33.3366 56.4525C34.6675 53.7495 36.1701 51.0465 37.7801 48.4041C39.4544 45.6809 41.1717 43.099 42.9534 40.6985C46.1518 40.4363 49.3932 40.2951 52.656 40.2951C55.8974 40.2951 59.1387 40.4363 62.3157 40.6784C64.0974 43.0788 65.8361 45.6406 67.5104 48.3436C69.1419 50.986 70.623 53.6688 71.9754 56.3718C70.623 59.0748 69.1419 61.7778 67.5319 64.4203ZM74.4654 61.798C75.6246 64.5009 76.612 67.2039 77.4277 69.8262C74.6157 70.4717 71.6534 71.0163 68.5837 71.44C69.6356 69.8867 70.6874 68.2932 71.6748 66.6593C72.6623 65.0456 73.5853 63.4117 74.4654 61.798ZM52.6989 83.321C50.7026 81.3845 48.7063 79.2262 46.7314 76.8661C48.6633 76.9468 50.6382 77.0073 52.6345 77.0073C54.6523 77.0073 56.6487 76.9669 58.6021 76.8661C56.6701 79.2262 54.6738 81.3845 52.6989 83.321ZM36.7283 71.44C33.6801 71.0163 30.7393 70.4919 27.9272 69.8464C28.7215 67.2443 29.7089 64.5615 30.8251 61.8787C31.7052 63.4924 32.6283 65.1061 33.6372 66.7198C34.6461 68.3335 35.6764 69.9069 36.7283 71.44ZM52.5916 29.463C54.5879 31.3995 56.5843 33.5578 58.5591 35.9179C56.6272 35.8372 54.6523 35.7767 52.656 35.7767C50.6382 35.7767 48.6419 35.817 46.6885 35.9179C48.6204 33.5578 50.6167 31.3995 52.5916 29.463ZM36.7068 41.344C35.655 42.8972 34.6031 44.4908 33.6157 46.1247C32.6283 47.7384 31.7052 49.3521 30.8251 50.9659C29.666 48.2629 28.6785 45.5599 27.8628 42.9376C30.6749 42.3123 33.6372 41.7676 36.7068 41.344ZM17.2801 66.5988C9.68115 63.5529 4.76544 59.5589 4.76544 56.392C4.76544 53.2251 9.68115 49.2109 17.2801 46.1852C19.1262 45.4389 21.144 44.7732 23.2262 44.1479C24.4497 48.1015 26.0597 52.2165 28.056 56.4323C26.0811 60.628 24.4927 64.7228 23.2906 68.6563C21.1654 68.031 19.1476 67.3451 17.2801 66.5988ZM28.8288 95.4239C25.9094 93.8505 24.6429 87.8596 25.6304 80.1541C25.8665 78.2579 26.2529 76.2609 26.7251 74.2236C30.9325 75.1919 35.5262 75.9382 40.356 76.4223C43.2539 80.1541 46.2591 83.5429 49.2858 86.5081C42.2879 92.6201 35.7194 95.9685 31.2544 95.9685C30.2885 95.9484 29.4728 95.7668 28.8288 95.4239ZM79.746 80.0532C80.7549 87.7587 79.5099 93.7497 76.612 95.3432C75.968 95.7063 75.1309 95.8677 74.1434 95.8677C69.7 95.8677 63.1099 92.5394 56.112 86.4677C59.1173 83.5025 62.1225 80.1339 64.9775 76.4022C69.8288 75.918 74.4225 75.1717 78.6298 74.1833C79.1235 76.2206 79.5099 78.1772 79.746 80.0532ZM88.0104 66.5988C86.1644 67.3451 84.1466 68.0108 82.0644 68.6361C80.8408 64.6825 79.2309 60.5675 77.2345 56.3516C79.2094 52.156 80.7979 48.0611 82 44.1277C84.1251 44.753 86.1429 45.4389 88.0319 46.1852C95.6308 49.2311 100.547 53.2251 100.547 56.392C100.525 59.5589 95.6094 63.5731 88.0104 66.5988Z" fill="#61DAFB"/>
<path d="M52.6345 65.6104C58.0524 65.6104 62.4445 61.4832 62.4445 56.392C62.4445 51.3008 58.0524 47.1736 52.6345 47.1736C47.2167 47.1736 42.8246 51.3008 42.8246 56.392C42.8246 61.4832 47.2167 65.6104 52.6345 65.6104Z" fill="#61DAFB"/>
</g>
<defs>
<clipPath id="clip0_14_48">
<rect width="105.312" height="112.764" fill="white"/>
</clipPath>
</defs>
</svg>
